# xmcd
#
# Track frame offsets: 
#        150
#        26151
#        35955
#        50262
#        69966
#        82274
#        91295
#        107572
#        127874
#
# Disc length: 1875 seconds
#
# Revision: 0
# Processed by: cddbd v1.5.2PL0 Copyright (c) Steve Scherf et al.
# Submitted via: ExactAudioCopy v1.0b4
#
DISCID=73075109
DTITLE=The Butcher - 33 Stones
DYEAR=2014
DGENRE=Blues
TTITLE0=Can't See
TTITLE1=Fell In Love With A Witch
TTITLE2=Let The Devil Deside
TTITLE3=Luminous
TTITLE4=No Good
TTITLE5=Preachers Of Doom
TTITLE6=Pull The Trigger
TTITLE7=Runaround Man
TTITLE8=Superbeast
EXTD=
EXTT0=
EXTT1=
EXTT2=
EXTT3=
EXTT4=
EXTT5=
EXTT6=
EXTT7=
EXTT8=
PLAYORDER=
